<?xml version="1.0" encoding="UTF-8"?>
<svg width="40px" height="40px" viewBox="0 0 40 40" version="1.1" xmlns="http://www.w3.org/2000/svg" xmlns:xlink="http://www.w3.org/1999/xlink">
    <title>75AA2B2F-2A3B-41C2-BDAD-EDC3D7849F41@1x</title>
    <g id="Desktop" stroke="none" stroke-width="1" fill="none" fill-rule="evenodd">
        <g id="Modal-Test-1-FINAL-Copy" transform="translate(-699.000000, -191.000000)">
            <g id="Group" transform="translate(379.000000, 151.000000)">
                <g id="Group-3" transform="translate(320.000000, 40.000000)">
                    <circle id="Oval" fill="#F0292A" cx="20" cy="20" r="20"></circle>
                    <path d="M33.9993601,19.9241817 C33.9993601,22.2792134 33.5460345,24.1695433 32.6393835,25.5951713 C31.8101254,26.9374792 30.7213345,28.1139008 29.4320856,29.0606067 C27.6915687,30.3540438 25.2543177,31.0005081 22.1203325,31 L9,31 L9,8.00107081 L19.0981623,8.00107081 C20.4029998,7.9898859 21.7070606,8.06633492 23.0008758,8.22986275 C23.9913292,8.36010209 24.968489,8.5713528 25.9217796,8.86132852 C26.6888322,9.09347722 27.4294494,9.40010576 28.132236,9.7764963 C28.7085466,10.0933297 29.2556446,10.4571678 29.7675307,10.8640207 C30.6072066,11.5152743 31.3440989,12.2808516 31.9550439,13.1366873 C32.6106944,14.0699857 33.1146596,15.0943227 33.449515,16.1742817 C33.8270082,17.3905595 34.0123677,18.6546966 33.9993601,19.9241817 L33.9993601,19.9241817 Z M26.534125,19.6252269 C26.534125,17.7567593 26.1572768,16.3008799 25.4035802,15.2575886 C24.7552728,14.2943508 23.8015388,13.5587463 22.6844182,13.1603292 C21.6450435,12.8087809 20.5517174,12.6283127 19.4502214,12.6264813 L16.0736187,12.6264813 C17.2801134,14.5872282 17.0269473,24.6327199 16.0736187,26.2380767 L19.447848,26.2380767 C21.202105,26.2795669 22.9311229,25.8291728 24.4249351,24.941589 C25.8294794,24.0772639 26.5314879,22.302601 26.5309605,19.6176005 L26.534125,19.6252269 Z" id="D" fill="#FFFFFF" fill-rule="nonzero"></path>
                </g>
            </g>
        </g>
    </g>
</svg>